%TF.GenerationSoftware,KiCad,Pcbnew,10.0.3*%
%TF.CreationDate,2026-07-06T13:29:28-04:00*%
%TF.ProjectId,Music Player,4d757369-6320-4506-9c61-7965722e6b69,rev?*%
%TF.SameCoordinates,Original*%
%TF.FileFunction,Copper,L1,Top*%
%TF.FilePolarity,Positive*%
%FSLAX46Y46*%
G04 Gerber Fmt 4.6, Leading zero omitted, Abs format (unit mm)*
G04 Created by KiCad (PCBNEW 10.0.3) date 2026-07-06 13:29:28*
%MOMM*%
%LPD*%
G01*
G04 APERTURE LIST*
G04 Aperture macros list*
%AMRoundRect*
0 Rectangle with rounded corners*
0 $1 Rounding radius*
0 $2 $3 $4 $5 $6 $7 $8 $9 X,Y pos of 4 corners*
0 Add a 4 corners polygon primitive as box body*
4,1,4,$2,$3,$4,$5,$6,$7,$8,$9,$2,$3,0*
0 Add four circle primitives for the rounded corners*
1,1,$1+$1,$2,$3*
1,1,$1+$1,$4,$5*
1,1,$1+$1,$6,$7*
1,1,$1+$1,$8,$9*
0 Add four rect primitives between the rounded corners*
20,1,$1+$1,$2,$3,$4,$5,0*
20,1,$1+$1,$4,$5,$6,$7,0*
20,1,$1+$1,$6,$7,$8,$9,0*
20,1,$1+$1,$8,$9,$2,$3,0*%
G04 Aperture macros list end*
%TA.AperFunction,ComponentPad*%
%ADD10C,1.524000*%
%TD*%
%TA.AperFunction,ComponentPad*%
%ADD11C,1.600000*%
%TD*%
%TA.AperFunction,ComponentPad*%
%ADD12R,1.700000X1.700000*%
%TD*%
%TA.AperFunction,ComponentPad*%
%ADD13C,1.700000*%
%TD*%
%TA.AperFunction,ComponentPad*%
%ADD14RoundRect,0.250000X-0.350000X-0.625000X0.350000X-0.625000X0.350000X0.625000X-0.350000X0.625000X0*%
%TD*%
%TA.AperFunction,ComponentPad*%
%ADD15O,1.200000X1.750000*%
%TD*%
%TA.AperFunction,ComponentPad*%
%ADD16R,1.600000X1.600000*%
%TD*%
%TA.AperFunction,ComponentPad*%
%ADD17O,1.600000X1.600000*%
%TD*%
%TA.AperFunction,ComponentPad*%
%ADD18O,3.200000X1.900000*%
%TD*%
%TA.AperFunction,ViaPad*%
%ADD19C,0.600000*%
%TD*%
%TA.AperFunction,Conductor*%
%ADD20C,0.200000*%
%TD*%
G04 APERTURE END LIST*
D10*
%TO.P,DFPlayer Mini,16,Pin_16_16*%
%TO.N,Net-(A1-D5)*%
X162160000Y-45000000D03*
%TO.P,DFPlayer Mini,15,Pin_15_15*%
%TO.N,unconnected-(J1-Pin_15-Pad15)*%
X162160000Y-47540000D03*
%TO.P,DFPlayer Mini,14,Pin_14_14*%
%TO.N,unconnected-(J1-Pin_14-Pad14)*%
X162160000Y-50080000D03*
%TO.P,DFPlayer Mini,13,Pin_13_13*%
%TO.N,unconnected-(J1-Pin_13-Pad13)*%
X162160000Y-52620000D03*
%TO.P,DFPlayer Mini,12,Pin_12_12*%
%TO.N,unconnected-(J1-Pin_12-Pad12)*%
X162160000Y-55160000D03*
%TO.P,DFPlayer Mini,11,Pin_11_11*%
%TO.N,unconnected-(J1-Pin_11-Pad11)*%
X162160000Y-57700000D03*
%TO.P,DFPlayer Mini,10,Pin_10_10*%
%TO.N,GND*%
X162160000Y-60240000D03*
%TO.P,DFPlayer Mini,9,Pin_9_9*%
%TO.N,unconnected-(J1-Pin_9-Pad9)*%
X162160000Y-62780000D03*
%TO.P,DFPlayer Mini,8,Pin_8_8*%
%TO.N,Net-(J1-Pin_8)*%
X144380000Y-62780000D03*
%TO.P,DFPlayer Mini,7,Pin_7_7*%
%TO.N,unconnected-(J1-Pin_7-Pad7)*%
X144380000Y-60240000D03*
%TO.P,DFPlayer Mini,6,Pin_6_6*%
%TO.N,Net-(J1-Pin_6)*%
X144380000Y-57700000D03*
%TO.P,DFPlayer Mini,5,Pin_5_5*%
%TO.N,unconnected-(J1-Pin_5-Pad5)*%
X144380000Y-55160000D03*
%TO.P,DFPlayer Mini,4,Pin_4_4*%
%TO.N,Net-(J1-Pin_4)*%
X144380000Y-52620000D03*
%TO.P,DFPlayer Mini,3,Pin_3_3*%
%TO.N,Net-(A1-D10)*%
X144380000Y-50080000D03*
%TO.P,DFPlayer Mini,2,Pin_2_2*%
%TO.N,unconnected-(J1-Pin_2-Pad2)*%
X144380000Y-47540000D03*
%TO.P,DFPlayer Mini,1,Pin_1_1*%
%TO.N,+5V*%
X144380000Y-45000000D03*
%TD*%
D11*
%TO.P,R2,1*%
%TO.N,Net-(A1-D4)*%
X127000000Y-80810000D03*
%TO.P,R2,2*%
%TO.N,GND*%
X127000000Y-73190000D03*
%TD*%
%TO.P,R4,1*%
%TO.N,Net-(A1-D2)*%
X136000000Y-100000000D03*
%TO.P,R4,2*%
%TO.N,GND*%
X136000000Y-107620000D03*
%TD*%
D12*
%TO.P,Oled,1,Pin_1_1*%
%TO.N,Net-(A1-A5)*%
X120540000Y-42000000D03*
D13*
%TO.P,Oled,2,Pin_2_2*%
%TO.N,Net-(A1-A4)*%
X118000000Y-42000000D03*
%TO.P,Oled,3,Pin_3_3*%
%TO.N,+5V*%
X115460000Y-42000000D03*
%TO.P,Oled,4,Pin_4_4*%
%TO.N,GND*%
X112920000Y-42000000D03*
%TD*%
D14*
%TO.P,Speaker,1,Pin_1_1*%
%TO.N,Net-(J1-Pin_6)*%
X132000000Y-46000000D03*
D15*
%TO.P,Speaker,2,Pin_2_2*%
%TO.N,Net-(J1-Pin_8)*%
X134000000Y-46000000D03*
%TD*%
D16*
%TO.P,Arduino Nano,1,D1/TX_1*%
%TO.N,unconnected-(A1-D1{slash}TX-Pad1)*%
X147760000Y-73440000D03*
D17*
%TO.P,Arduino Nano,2,D0/RX_2*%
%TO.N,unconnected-(A1-D0{slash}RX-Pad2)*%
X147760000Y-75980000D03*
%TO.P,Arduino Nano,3,~{RESET}_3*%
%TO.N,unconnected-(A1-~{RESET}-Pad3)*%
X147760000Y-78520000D03*
%TO.P,Arduino Nano,4,GND_4*%
%TO.N,GND*%
X147760000Y-81060000D03*
%TO.P,Arduino Nano,5,D2_5*%
%TO.N,Net-(A1-D2)*%
X147760000Y-83600000D03*
%TO.P,Arduino Nano,6,D3_6*%
%TO.N,Net-(A1-D3)*%
X147760000Y-86140000D03*
%TO.P,Arduino Nano,7,D4_7*%
%TO.N,Net-(A1-D4)*%
X147760000Y-88680000D03*
%TO.P,Arduino Nano,8,D5_8*%
%TO.N,Net-(A1-D5)*%
X147760000Y-91220000D03*
%TO.P,Arduino Nano,9,D6_9*%
%TO.N,unconnected-(A1-D6-Pad9)*%
X147760000Y-93760000D03*
%TO.P,Arduino Nano,10,D7_10*%
%TO.N,unconnected-(A1-D7-Pad10)*%
X147760000Y-96300000D03*
%TO.P,Arduino Nano,11,D8_11*%
%TO.N,unconnected-(A1-D8-Pad11)*%
X147760000Y-98840000D03*
%TO.P,Arduino Nano,12,D9_12*%
%TO.N,unconnected-(A1-D9-Pad12)*%
X147760000Y-101380000D03*
%TO.P,Arduino Nano,13,D10_13*%
%TO.N,Net-(A1-D10)*%
X147760000Y-103920000D03*
%TO.P,Arduino Nano,14,D11_14*%
%TO.N,Net-(A1-D11)*%
X147760000Y-106460000D03*
%TO.P,Arduino Nano,15,D12_15*%
%TO.N,unconnected-(A1-D12-Pad15)*%
X147760000Y-109000000D03*
%TO.P,Arduino Nano,16,D13_16*%
%TO.N,unconnected-(A1-D13-Pad16)*%
X163000000Y-109000000D03*
%TO.P,Arduino Nano,17,3V3_17*%
%TO.N,unconnected-(A1-3V3-Pad17)*%
X163000000Y-106460000D03*
%TO.P,Arduino Nano,18,AREF_18*%
%TO.N,unconnected-(A1-AREF-Pad18)*%
X163000000Y-103920000D03*
%TO.P,Arduino Nano,19,A0_19*%
%TO.N,unconnected-(A1-A0-Pad19)*%
X163000000Y-101380000D03*
%TO.P,Arduino Nano,20,A1_20*%
%TO.N,unconnected-(A1-A1-Pad20)*%
X163000000Y-98840000D03*
%TO.P,Arduino Nano,21,A2_21*%
%TO.N,unconnected-(A1-A2-Pad21)*%
X163000000Y-96300000D03*
%TO.P,Arduino Nano,22,A3_22*%
%TO.N,unconnected-(A1-A3-Pad22)*%
X163000000Y-93760000D03*
%TO.P,Arduino Nano,23,A4_23*%
%TO.N,Net-(A1-A4)*%
X163000000Y-91220000D03*
%TO.P,Arduino Nano,24,A5_24*%
%TO.N,Net-(A1-A5)*%
X163000000Y-88680000D03*
%TO.P,Arduino Nano,25,A6_25*%
%TO.N,unconnected-(A1-A6-Pad25)*%
X163000000Y-86140000D03*
%TO.P,Arduino Nano,26,A7_26*%
%TO.N,unconnected-(A1-A7-Pad26)*%
X163000000Y-83600000D03*
%TO.P,Arduino Nano,27,+5V_27*%
%TO.N,+5V*%
X163000000Y-81060000D03*
%TO.P,Arduino Nano,28,~{RESET}_28*%
%TO.N,unconnected-(A1-~{RESET}-Pad28)*%
X163000000Y-78520000D03*
%TO.P,Arduino Nano,29,GND_29*%
%TO.N,unconnected-(A1-GND-Pad29)*%
X163000000Y-75980000D03*
%TO.P,Arduino Nano,30,VIN_30*%
%TO.N,unconnected-(A1-VIN-Pad30)*%
X163000000Y-73440000D03*
%TD*%
D11*
%TO.P,R3,1*%
%TO.N,Net-(A1-D3)*%
X128000000Y-107620000D03*
%TO.P,R3,2*%
%TO.N,GND*%
X128000000Y-100000000D03*
%TD*%
%TO.P,R1,1*%
%TO.N,Net-(J1-Pin_4)*%
X140000000Y-56190000D03*
%TO.P,R1,2*%
%TO.N,Net-(A1-D11)*%
X140000000Y-63810000D03*
%TD*%
D18*
%TO.P,SW1,2,2_2*%
%TO.N,Net-(A1-D4)*%
X122250000Y-78500000D03*
X109750000Y-78500000D03*
%TO.P,SW1,1,1_1*%
%TO.N,+5V*%
X122250000Y-73500000D03*
X109750000Y-73500000D03*
%TD*%
%TO.P,SW2,1,1_1*%
%TO.N,+5V*%
X110000000Y-92000000D03*
X122500000Y-92000000D03*
%TO.P,SW2,2,2_2*%
%TO.N,Net-(A1-D3)*%
X110000000Y-97000000D03*
X122500000Y-97000000D03*
%TD*%
%TO.P,SW3,1,1_1*%
%TO.N,+5V*%
X130000000Y-83000000D03*
X142500000Y-83000000D03*
%TO.P,SW3,2,2_2*%
%TO.N,Net-(A1-D2)*%
X130000000Y-88000000D03*
X142500000Y-88000000D03*
%TD*%
D19*
%TO.N,Net-(A1-D4)*%
X125000000Y-80000000D03*
%TO.N,Net-(A1-D2)*%
X131784619Y-88215382D03*
%TO.N,+5V*%
X151000000Y-82000000D03*
%TO.N,GND*%
X146600000Y-81000000D03*
%TO.N,Net-(A1-D4)*%
X144400000Y-90000000D03*
%TO.N,GND*%
X144000000Y-80000000D03*
%TO.N,Net-(A1-D2)*%
X146600000Y-88000000D03*
X144000000Y-89000000D03*
%TO.N,Net-(A1-D5)*%
X150000000Y-92000000D03*
%TO.N,Net-(J1-Pin_4)*%
X139915735Y-54084265D03*
%TD*%
%TO.N,Net-(J1-Pin_6)*%
D20*
X132000000Y-46000000D02*
X139000000Y-53000000D01*
X139000000Y-53000000D02*
X139680000Y-53000000D01*
X139680000Y-53000000D02*
X144380000Y-57700000D01*
%TO.N,Net-(J1-Pin_8)*%
X134000000Y-46000000D02*
X134000000Y-46697895D01*
X134000000Y-46697895D02*
X143940105Y-56638000D01*
%TO.N,Net-(A1-D11)*%
X140000000Y-63810000D02*
X140000000Y-72000000D01*
X140000000Y-72000000D02*
X145000000Y-77000000D01*
%TO.N,Net-(J1-Pin_4)*%
X140000000Y-56190000D02*
X140000000Y-54168530D01*
X140000000Y-54168530D02*
X139915735Y-54084265D01*
%TO.N,+5V*%
X144380000Y-45000000D02*
X140230000Y-40850000D01*
X140230000Y-40850000D02*
X116610000Y-40850000D01*
X116610000Y-40850000D02*
X115460000Y-42000000D01*
%TO.N,Net-(A1-A5)*%
X120540000Y-42000000D02*
X137487790Y-42000000D01*
X141549791Y-46062000D02*
X144819895Y-46062000D01*
X144819895Y-46062000D02*
X157535895Y-58778000D01*
X137487790Y-42000000D02*
X141549791Y-46062000D01*
X161900000Y-89780000D02*
X163000000Y-88680000D01*
X164500000Y-91275635D02*
X163455635Y-92320000D01*
X162544365Y-92320000D02*
X161900000Y-91675635D01*
X157535895Y-58778000D02*
X162765580Y-58778000D01*
X162765580Y-58778000D02*
X164500000Y-60512419D01*
X164500000Y-60512419D02*
X164500000Y-91275635D01*
X163455635Y-92320000D02*
X162544365Y-92320000D01*
X161900000Y-91675635D02*
X161900000Y-89780000D01*
%TO.N,Net-(A1-A4)*%
X120825000Y-44825000D02*
X139747105Y-44825000D01*
X164100000Y-60678105D02*
X164100000Y-90120000D01*
X139747105Y-44825000D02*
X143940105Y-49018000D01*
X143940105Y-49018000D02*
X144819895Y-49018000D01*
X118000000Y-42000000D02*
X120825000Y-44825000D01*
X144819895Y-49018000D02*
X154979895Y-59178000D01*
X164100000Y-90120000D02*
X163000000Y-91220000D01*
X154979895Y-59178000D02*
X162599895Y-59178000D01*
X162599895Y-59178000D02*
X164100000Y-60678105D01*
%TO.N,+5V*%
X115460000Y-42000000D02*
X114310000Y-40850000D01*
X114310000Y-40850000D02*
X112443654Y-40850000D01*
X112443654Y-40850000D02*
X111770000Y-41523654D01*
X111770000Y-41523654D02*
X111770000Y-65270000D01*
%TO.N,GND*%
X112920000Y-42000000D02*
X127000000Y-56080000D01*
X127000000Y-56080000D02*
X127000000Y-73190000D01*
%TO.N,+5V*%
X111770000Y-65270000D02*
X115770000Y-69270000D01*
%TO.N,GND*%
X128912182Y-110087818D02*
X126900000Y-108075635D01*
X128912182Y-110087818D02*
X131380000Y-107620000D01*
X131380000Y-107620000D02*
X136000000Y-107620000D01*
%TO.N,+5V*%
X122250000Y-73500000D02*
X122250000Y-75415635D01*
X122250000Y-75415635D02*
X126544365Y-79710000D01*
%TO.N,Net-(A1-D4)*%
X123500000Y-78500000D02*
X125000000Y-80000000D01*
X122250000Y-78500000D02*
X123500000Y-78500000D01*
%TO.N,+5V*%
X115770000Y-69270000D02*
X120000000Y-73500000D01*
X120000000Y-73500000D02*
X122250000Y-73500000D01*
X115770000Y-69270000D02*
X111540000Y-73500000D01*
X111540000Y-73500000D02*
X109750000Y-73500000D01*
%TO.N,Net-(A1-D4)*%
X109750000Y-78500000D02*
X122250000Y-78500000D01*
%TO.N,Net-(A1-D2)*%
X130000000Y-88000000D02*
X130000000Y-89000000D01*
X130000000Y-89000000D02*
X136000000Y-95000000D01*
X136000000Y-95000000D02*
X136000000Y-100000000D01*
X131569237Y-88000000D02*
X131784619Y-88215382D01*
X130000000Y-88000000D02*
X131569237Y-88000000D01*
%TO.N,+5V*%
X130000000Y-83000000D02*
X142500000Y-83000000D01*
X122500000Y-92000000D02*
X122500000Y-83754365D01*
X122500000Y-83754365D02*
X126544365Y-79710000D01*
X127860000Y-79710000D02*
X130000000Y-81850000D01*
X126544365Y-79710000D02*
X127860000Y-79710000D01*
X130000000Y-81850000D02*
X130000000Y-83000000D01*
%TO.N,Net-(A1-D3)*%
X122500000Y-97000000D02*
X110000000Y-97000000D01*
%TO.N,+5V*%
X110000000Y-92000000D02*
X122500000Y-92000000D01*
%TO.N,Net-(A1-D3)*%
X129100000Y-106520000D02*
X129100000Y-99100000D01*
X129100000Y-99100000D02*
X127000000Y-97000000D01*
X127000000Y-97000000D02*
X122500000Y-97000000D01*
%TO.N,GND*%
X147760000Y-81060000D02*
X149260000Y-82560000D01*
X149260000Y-82560000D02*
X149260000Y-109055635D01*
X149260000Y-109055635D02*
X148215635Y-110100000D01*
X148215635Y-110100000D02*
X128924365Y-110100000D01*
X126900000Y-108075635D02*
X126900000Y-101100000D01*
X128924365Y-110100000D02*
X128912182Y-110087818D01*
X126900000Y-101100000D02*
X128000000Y-100000000D01*
%TO.N,Net-(A1-D3)*%
X142004365Y-107560000D02*
X140964365Y-106520000D01*
X140964365Y-106520000D02*
X129100000Y-106520000D01*
X129100000Y-106520000D02*
X128000000Y-107620000D01*
%TO.N,Net-(A1-D4)*%
X144400000Y-90000000D02*
X134417767Y-90000000D01*
X134417767Y-90000000D02*
X127000000Y-82582233D01*
X127000000Y-82582233D02*
X127000000Y-80810000D01*
%TO.N,Net-(A1-D2)*%
X144000000Y-89000000D02*
X143500000Y-89000000D01*
X143500000Y-89000000D02*
X142500000Y-88000000D01*
%TO.N,+5V*%
X163000000Y-81060000D02*
X151940000Y-81060000D01*
X151940000Y-81060000D02*
X151000000Y-82000000D01*
%TO.N,GND*%
X144000000Y-80000000D02*
X137190000Y-73190000D01*
X137190000Y-73190000D02*
X127000000Y-73190000D01*
X146660000Y-81060000D02*
X146600000Y-81000000D01*
X147760000Y-81060000D02*
X146660000Y-81060000D01*
X147760000Y-81060000D02*
X161098000Y-67722000D01*
X161098000Y-67722000D02*
X161098000Y-61302000D01*
X161098000Y-61302000D02*
X162160000Y-60240000D01*
%TO.N,Net-(A1-D3)*%
X148860000Y-87240000D02*
X147760000Y-86140000D01*
X148860000Y-106915635D02*
X148860000Y-87240000D01*
X148215635Y-107560000D02*
X148860000Y-106915635D01*
X142004365Y-107560000D02*
X148215635Y-107560000D01*
%TO.N,Net-(A1-D2)*%
X146600000Y-84760000D02*
X146600000Y-88000000D01*
X147760000Y-83600000D02*
X146600000Y-84760000D01*
%TO.N,Net-(J1-Pin_8)*%
X145600000Y-57418105D02*
X145600000Y-61560000D01*
X144819895Y-56638000D02*
X145600000Y-57418105D01*
X143940105Y-56638000D02*
X144819895Y-56638000D01*
X145600000Y-61560000D02*
X144380000Y-62780000D01*
%TO.N,Net-(A1-D5)*%
X162160000Y-45000000D02*
X166182655Y-49022655D01*
X166182655Y-49022655D02*
X166182655Y-92132980D01*
X163455635Y-94860000D02*
X152860000Y-94860000D01*
X152860000Y-94860000D02*
X150000000Y-92000000D01*
X166182655Y-92132980D02*
X163455635Y-94860000D01*
%TO.N,Net-(A1-D10)*%
X147760000Y-103920000D02*
X146000000Y-102160000D01*
X146000000Y-102160000D02*
X146000000Y-51700000D01*
X146000000Y-51700000D02*
X144380000Y-50080000D01*
%TO.N,Net-(A1-D11)*%
X145000000Y-103700000D02*
X145000000Y-77000000D01*
X147760000Y-106460000D02*
X145000000Y-103700000D01*
%TO.N,Net-(J1-Pin_4)*%
X139831470Y-54000000D02*
X139915735Y-54084265D01*
%TD*%
M02*
