%TF.GenerationSoftware,KiCad,Pcbnew,10.0.3*%
%TF.CreationDate,2026-07-20T18:45:46-04:00*%
%TF.ProjectId,Music Player,4d757369-6320-4506-9c61-7965722e6b69,rev?*%
%TF.SameCoordinates,Original*%
%TF.FileFunction,Legend,Top*%
%TF.FilePolarity,Positive*%
%FSLAX46Y46*%
G04 Gerber Fmt 4.6, Leading zero omitted, Abs format (unit mm)*
G04 Created by KiCad (PCBNEW 10.0.3) date 2026-07-20 18:45:46*
%MOMM*%
%LPD*%
G01*
G04 APERTURE LIST*
%ADD10C,0.200000*%
%ADD11C,0.150000*%
%ADD12C,0.120000*%
G04 APERTURE END LIST*
D10*
X107607768Y-114744838D02*
X107607768Y-112744838D01*
X108464911Y-114744838D02*
X108464911Y-113697219D01*
X108464911Y-113697219D02*
X108369673Y-113506742D01*
X108369673Y-113506742D02*
X108179197Y-113411504D01*
X108179197Y-113411504D02*
X107893482Y-113411504D01*
X107893482Y-113411504D02*
X107703006Y-113506742D01*
X107703006Y-113506742D02*
X107607768Y-113601980D01*
X109417292Y-114744838D02*
X109417292Y-113411504D01*
X109417292Y-112744838D02*
X109322054Y-112840076D01*
X109322054Y-112840076D02*
X109417292Y-112935314D01*
X109417292Y-112935314D02*
X109512530Y-112840076D01*
X109512530Y-112840076D02*
X109417292Y-112744838D01*
X109417292Y-112744838D02*
X109417292Y-112935314D01*
D11*
X125084819Y-80476190D02*
X124608628Y-80809523D01*
X125084819Y-81047618D02*
X124084819Y-81047618D01*
X124084819Y-81047618D02*
X124084819Y-80666666D01*
X124084819Y-80666666D02*
X124132438Y-80571428D01*
X124132438Y-80571428D02*
X124180057Y-80523809D01*
X124180057Y-80523809D02*
X124275295Y-80476190D01*
X124275295Y-80476190D02*
X124418152Y-80476190D01*
X124418152Y-80476190D02*
X124513390Y-80523809D01*
X124513390Y-80523809D02*
X124561009Y-80571428D01*
X124561009Y-80571428D02*
X124608628Y-80666666D01*
X124608628Y-80666666D02*
X124608628Y-81047618D01*
X124180057Y-80095237D02*
X124132438Y-80047618D01*
X124132438Y-80047618D02*
X124084819Y-79952380D01*
X124084819Y-79952380D02*
X124084819Y-79714285D01*
X124084819Y-79714285D02*
X124132438Y-79619047D01*
X124132438Y-79619047D02*
X124180057Y-79571428D01*
X124180057Y-79571428D02*
X124275295Y-79523809D01*
X124275295Y-79523809D02*
X124370533Y-79523809D01*
X124370533Y-79523809D02*
X124513390Y-79571428D01*
X124513390Y-79571428D02*
X125084819Y-80142856D01*
X125084819Y-80142856D02*
X125084819Y-79523809D01*
X124703866Y-78333332D02*
X124703866Y-77571428D01*
X125084819Y-75809523D02*
X125084819Y-76380951D01*
X125084819Y-76095237D02*
X124084819Y-76095237D01*
X124084819Y-76095237D02*
X124227676Y-76190475D01*
X124227676Y-76190475D02*
X124322914Y-76285713D01*
X124322914Y-76285713D02*
X124370533Y-76380951D01*
X124084819Y-75190475D02*
X124084819Y-75095237D01*
X124084819Y-75095237D02*
X124132438Y-74999999D01*
X124132438Y-74999999D02*
X124180057Y-74952380D01*
X124180057Y-74952380D02*
X124275295Y-74904761D01*
X124275295Y-74904761D02*
X124465771Y-74857142D01*
X124465771Y-74857142D02*
X124703866Y-74857142D01*
X124703866Y-74857142D02*
X124894342Y-74904761D01*
X124894342Y-74904761D02*
X124989580Y-74952380D01*
X124989580Y-74952380D02*
X125037200Y-74999999D01*
X125037200Y-74999999D02*
X125084819Y-75095237D01*
X125084819Y-75095237D02*
X125084819Y-75190475D01*
X125084819Y-75190475D02*
X125037200Y-75285713D01*
X125037200Y-75285713D02*
X124989580Y-75333332D01*
X124989580Y-75333332D02*
X124894342Y-75380951D01*
X124894342Y-75380951D02*
X124703866Y-75428570D01*
X124703866Y-75428570D02*
X124465771Y-75428570D01*
X124465771Y-75428570D02*
X124275295Y-75380951D01*
X124275295Y-75380951D02*
X124180057Y-75333332D01*
X124180057Y-75333332D02*
X124132438Y-75285713D01*
X124132438Y-75285713D02*
X124084819Y-75190475D01*
X125084819Y-74428570D02*
X124084819Y-74428570D01*
X124703866Y-74333332D02*
X125084819Y-74047618D01*
X124418152Y-74047618D02*
X124799104Y-74428570D01*
X125084819Y-73666665D02*
X125084819Y-73428570D01*
X125084819Y-73428570D02*
X124894342Y-73428570D01*
X124894342Y-73428570D02*
X124846723Y-73523808D01*
X124846723Y-73523808D02*
X124751485Y-73619046D01*
X124751485Y-73619046D02*
X124608628Y-73666665D01*
X124608628Y-73666665D02*
X124370533Y-73666665D01*
X124370533Y-73666665D02*
X124227676Y-73619046D01*
X124227676Y-73619046D02*
X124132438Y-73523808D01*
X124132438Y-73523808D02*
X124084819Y-73380951D01*
X124084819Y-73380951D02*
X124084819Y-73190475D01*
X124084819Y-73190475D02*
X124132438Y-73047618D01*
X124132438Y-73047618D02*
X124227676Y-72952380D01*
X124227676Y-72952380D02*
X124370533Y-72904761D01*
X124370533Y-72904761D02*
X124608628Y-72904761D01*
X124608628Y-72904761D02*
X124751485Y-72952380D01*
X124751485Y-72952380D02*
X124846723Y-73047618D01*
X124846723Y-73047618D02*
X124894342Y-73142856D01*
X124894342Y-73142856D02*
X125084819Y-73142856D01*
X125084819Y-73142856D02*
X125084819Y-72904761D01*
X114496667Y-86997200D02*
X114639524Y-87044819D01*
X114639524Y-87044819D02*
X114877619Y-87044819D01*
X114877619Y-87044819D02*
X114972857Y-86997200D01*
X114972857Y-86997200D02*
X115020476Y-86949580D01*
X115020476Y-86949580D02*
X115068095Y-86854342D01*
X115068095Y-86854342D02*
X115068095Y-86759104D01*
X115068095Y-86759104D02*
X115020476Y-86663866D01*
X115020476Y-86663866D02*
X114972857Y-86616247D01*
X114972857Y-86616247D02*
X114877619Y-86568628D01*
X114877619Y-86568628D02*
X114687143Y-86521009D01*
X114687143Y-86521009D02*
X114591905Y-86473390D01*
X114591905Y-86473390D02*
X114544286Y-86425771D01*
X114544286Y-86425771D02*
X114496667Y-86330533D01*
X114496667Y-86330533D02*
X114496667Y-86235295D01*
X114496667Y-86235295D02*
X114544286Y-86140057D01*
X114544286Y-86140057D02*
X114591905Y-86092438D01*
X114591905Y-86092438D02*
X114687143Y-86044819D01*
X114687143Y-86044819D02*
X114925238Y-86044819D01*
X114925238Y-86044819D02*
X115068095Y-86092438D01*
X115401429Y-86044819D02*
X115639524Y-87044819D01*
X115639524Y-87044819D02*
X115830000Y-86330533D01*
X115830000Y-86330533D02*
X116020476Y-87044819D01*
X116020476Y-87044819D02*
X116258572Y-86044819D01*
X116591905Y-86140057D02*
X116639524Y-86092438D01*
X116639524Y-86092438D02*
X116734762Y-86044819D01*
X116734762Y-86044819D02*
X116972857Y-86044819D01*
X116972857Y-86044819D02*
X117068095Y-86092438D01*
X117068095Y-86092438D02*
X117115714Y-86140057D01*
X117115714Y-86140057D02*
X117163333Y-86235295D01*
X117163333Y-86235295D02*
X117163333Y-86330533D01*
X117163333Y-86330533D02*
X117115714Y-86473390D01*
X117115714Y-86473390D02*
X116544286Y-87044819D01*
X116544286Y-87044819D02*
X117163333Y-87044819D01*
X134496667Y-77997200D02*
X134639524Y-78044819D01*
X134639524Y-78044819D02*
X134877619Y-78044819D01*
X134877619Y-78044819D02*
X134972857Y-77997200D01*
X134972857Y-77997200D02*
X135020476Y-77949580D01*
X135020476Y-77949580D02*
X135068095Y-77854342D01*
X135068095Y-77854342D02*
X135068095Y-77759104D01*
X135068095Y-77759104D02*
X135020476Y-77663866D01*
X135020476Y-77663866D02*
X134972857Y-77616247D01*
X134972857Y-77616247D02*
X134877619Y-77568628D01*
X134877619Y-77568628D02*
X134687143Y-77521009D01*
X134687143Y-77521009D02*
X134591905Y-77473390D01*
X134591905Y-77473390D02*
X134544286Y-77425771D01*
X134544286Y-77425771D02*
X134496667Y-77330533D01*
X134496667Y-77330533D02*
X134496667Y-77235295D01*
X134496667Y-77235295D02*
X134544286Y-77140057D01*
X134544286Y-77140057D02*
X134591905Y-77092438D01*
X134591905Y-77092438D02*
X134687143Y-77044819D01*
X134687143Y-77044819D02*
X134925238Y-77044819D01*
X134925238Y-77044819D02*
X135068095Y-77092438D01*
X135401429Y-77044819D02*
X135639524Y-78044819D01*
X135639524Y-78044819D02*
X135830000Y-77330533D01*
X135830000Y-77330533D02*
X136020476Y-78044819D01*
X136020476Y-78044819D02*
X136258572Y-77044819D01*
X136544286Y-77044819D02*
X137163333Y-77044819D01*
X137163333Y-77044819D02*
X136830000Y-77425771D01*
X136830000Y-77425771D02*
X136972857Y-77425771D01*
X136972857Y-77425771D02*
X137068095Y-77473390D01*
X137068095Y-77473390D02*
X137115714Y-77521009D01*
X137115714Y-77521009D02*
X137163333Y-77616247D01*
X137163333Y-77616247D02*
X137163333Y-77854342D01*
X137163333Y-77854342D02*
X137115714Y-77949580D01*
X137115714Y-77949580D02*
X137068095Y-77997200D01*
X137068095Y-77997200D02*
X136972857Y-78044819D01*
X136972857Y-78044819D02*
X136687143Y-78044819D01*
X136687143Y-78044819D02*
X136591905Y-77997200D01*
X136591905Y-77997200D02*
X136544286Y-77949580D01*
X138824819Y-107286190D02*
X138348628Y-107619523D01*
X138824819Y-107857618D02*
X137824819Y-107857618D01*
X137824819Y-107857618D02*
X137824819Y-107476666D01*
X137824819Y-107476666D02*
X137872438Y-107381428D01*
X137872438Y-107381428D02*
X137920057Y-107333809D01*
X137920057Y-107333809D02*
X138015295Y-107286190D01*
X138015295Y-107286190D02*
X138158152Y-107286190D01*
X138158152Y-107286190D02*
X138253390Y-107333809D01*
X138253390Y-107333809D02*
X138301009Y-107381428D01*
X138301009Y-107381428D02*
X138348628Y-107476666D01*
X138348628Y-107476666D02*
X138348628Y-107857618D01*
X138158152Y-106429047D02*
X138824819Y-106429047D01*
X137777200Y-106667142D02*
X138491485Y-106905237D01*
X138491485Y-106905237D02*
X138491485Y-106286190D01*
X138443866Y-105143332D02*
X138443866Y-104381428D01*
X138824819Y-102619523D02*
X138824819Y-103190951D01*
X138824819Y-102905237D02*
X137824819Y-102905237D01*
X137824819Y-102905237D02*
X137967676Y-103000475D01*
X137967676Y-103000475D02*
X138062914Y-103095713D01*
X138062914Y-103095713D02*
X138110533Y-103190951D01*
X137824819Y-102000475D02*
X137824819Y-101905237D01*
X137824819Y-101905237D02*
X137872438Y-101809999D01*
X137872438Y-101809999D02*
X137920057Y-101762380D01*
X137920057Y-101762380D02*
X138015295Y-101714761D01*
X138015295Y-101714761D02*
X138205771Y-101667142D01*
X138205771Y-101667142D02*
X138443866Y-101667142D01*
X138443866Y-101667142D02*
X138634342Y-101714761D01*
X138634342Y-101714761D02*
X138729580Y-101762380D01*
X138729580Y-101762380D02*
X138777200Y-101809999D01*
X138777200Y-101809999D02*
X138824819Y-101905237D01*
X138824819Y-101905237D02*
X138824819Y-102000475D01*
X138824819Y-102000475D02*
X138777200Y-102095713D01*
X138777200Y-102095713D02*
X138729580Y-102143332D01*
X138729580Y-102143332D02*
X138634342Y-102190951D01*
X138634342Y-102190951D02*
X138443866Y-102238570D01*
X138443866Y-102238570D02*
X138205771Y-102238570D01*
X138205771Y-102238570D02*
X138015295Y-102190951D01*
X138015295Y-102190951D02*
X137920057Y-102143332D01*
X137920057Y-102143332D02*
X137872438Y-102095713D01*
X137872438Y-102095713D02*
X137824819Y-102000475D01*
X138824819Y-101238570D02*
X137824819Y-101238570D01*
X138443866Y-101143332D02*
X138824819Y-100857618D01*
X138158152Y-100857618D02*
X138539104Y-101238570D01*
X138824819Y-100476665D02*
X138824819Y-100238570D01*
X138824819Y-100238570D02*
X138634342Y-100238570D01*
X138634342Y-100238570D02*
X138586723Y-100333808D01*
X138586723Y-100333808D02*
X138491485Y-100429046D01*
X138491485Y-100429046D02*
X138348628Y-100476665D01*
X138348628Y-100476665D02*
X138110533Y-100476665D01*
X138110533Y-100476665D02*
X137967676Y-100429046D01*
X137967676Y-100429046D02*
X137872438Y-100333808D01*
X137872438Y-100333808D02*
X137824819Y-100190951D01*
X137824819Y-100190951D02*
X137824819Y-100000475D01*
X137824819Y-100000475D02*
X137872438Y-99857618D01*
X137872438Y-99857618D02*
X137967676Y-99762380D01*
X137967676Y-99762380D02*
X138110533Y-99714761D01*
X138110533Y-99714761D02*
X138348628Y-99714761D01*
X138348628Y-99714761D02*
X138491485Y-99762380D01*
X138491485Y-99762380D02*
X138586723Y-99857618D01*
X138586723Y-99857618D02*
X138634342Y-99952856D01*
X138634342Y-99952856D02*
X138824819Y-99952856D01*
X138824819Y-99952856D02*
X138824819Y-99714761D01*
X122764819Y-43238095D02*
X122764819Y-43047619D01*
X122764819Y-43047619D02*
X122812438Y-42952381D01*
X122812438Y-42952381D02*
X122907676Y-42857143D01*
X122907676Y-42857143D02*
X123098152Y-42809524D01*
X123098152Y-42809524D02*
X123431485Y-42809524D01*
X123431485Y-42809524D02*
X123621961Y-42857143D01*
X123621961Y-42857143D02*
X123717200Y-42952381D01*
X123717200Y-42952381D02*
X123764819Y-43047619D01*
X123764819Y-43047619D02*
X123764819Y-43238095D01*
X123764819Y-43238095D02*
X123717200Y-43333333D01*
X123717200Y-43333333D02*
X123621961Y-43428571D01*
X123621961Y-43428571D02*
X123431485Y-43476190D01*
X123431485Y-43476190D02*
X123098152Y-43476190D01*
X123098152Y-43476190D02*
X122907676Y-43428571D01*
X122907676Y-43428571D02*
X122812438Y-43333333D01*
X122812438Y-43333333D02*
X122764819Y-43238095D01*
X123764819Y-42238095D02*
X123717200Y-42333333D01*
X123717200Y-42333333D02*
X123621961Y-42380952D01*
X123621961Y-42380952D02*
X122764819Y-42380952D01*
X123717200Y-41476190D02*
X123764819Y-41571428D01*
X123764819Y-41571428D02*
X123764819Y-41761904D01*
X123764819Y-41761904D02*
X123717200Y-41857142D01*
X123717200Y-41857142D02*
X123621961Y-41904761D01*
X123621961Y-41904761D02*
X123241009Y-41904761D01*
X123241009Y-41904761D02*
X123145771Y-41857142D01*
X123145771Y-41857142D02*
X123098152Y-41761904D01*
X123098152Y-41761904D02*
X123098152Y-41571428D01*
X123098152Y-41571428D02*
X123145771Y-41476190D01*
X123145771Y-41476190D02*
X123241009Y-41428571D01*
X123241009Y-41428571D02*
X123336247Y-41428571D01*
X123336247Y-41428571D02*
X123431485Y-41904761D01*
X123764819Y-40571428D02*
X122764819Y-40571428D01*
X123717200Y-40571428D02*
X123764819Y-40666666D01*
X123764819Y-40666666D02*
X123764819Y-40857142D01*
X123764819Y-40857142D02*
X123717200Y-40952380D01*
X123717200Y-40952380D02*
X123669580Y-40999999D01*
X123669580Y-40999999D02*
X123574342Y-41047618D01*
X123574342Y-41047618D02*
X123288628Y-41047618D01*
X123288628Y-41047618D02*
X123193390Y-40999999D01*
X123193390Y-40999999D02*
X123145771Y-40952380D01*
X123145771Y-40952380D02*
X123098152Y-40857142D01*
X123098152Y-40857142D02*
X123098152Y-40666666D01*
X123098152Y-40666666D02*
X123145771Y-40571428D01*
X130238095Y-43407200D02*
X130380952Y-43454819D01*
X130380952Y-43454819D02*
X130619047Y-43454819D01*
X130619047Y-43454819D02*
X130714285Y-43407200D01*
X130714285Y-43407200D02*
X130761904Y-43359580D01*
X130761904Y-43359580D02*
X130809523Y-43264342D01*
X130809523Y-43264342D02*
X130809523Y-43169104D01*
X130809523Y-43169104D02*
X130761904Y-43073866D01*
X130761904Y-43073866D02*
X130714285Y-43026247D01*
X130714285Y-43026247D02*
X130619047Y-42978628D01*
X130619047Y-42978628D02*
X130428571Y-42931009D01*
X130428571Y-42931009D02*
X130333333Y-42883390D01*
X130333333Y-42883390D02*
X130285714Y-42835771D01*
X130285714Y-42835771D02*
X130238095Y-42740533D01*
X130238095Y-42740533D02*
X130238095Y-42645295D01*
X130238095Y-42645295D02*
X130285714Y-42550057D01*
X130285714Y-42550057D02*
X130333333Y-42502438D01*
X130333333Y-42502438D02*
X130428571Y-42454819D01*
X130428571Y-42454819D02*
X130666666Y-42454819D01*
X130666666Y-42454819D02*
X130809523Y-42502438D01*
X131238095Y-42788152D02*
X131238095Y-43788152D01*
X131238095Y-42835771D02*
X131333333Y-42788152D01*
X131333333Y-42788152D02*
X131523809Y-42788152D01*
X131523809Y-42788152D02*
X131619047Y-42835771D01*
X131619047Y-42835771D02*
X131666666Y-42883390D01*
X131666666Y-42883390D02*
X131714285Y-42978628D01*
X131714285Y-42978628D02*
X131714285Y-43264342D01*
X131714285Y-43264342D02*
X131666666Y-43359580D01*
X131666666Y-43359580D02*
X131619047Y-43407200D01*
X131619047Y-43407200D02*
X131523809Y-43454819D01*
X131523809Y-43454819D02*
X131333333Y-43454819D01*
X131333333Y-43454819D02*
X131238095Y-43407200D01*
X132523809Y-43407200D02*
X132428571Y-43454819D01*
X132428571Y-43454819D02*
X132238095Y-43454819D01*
X132238095Y-43454819D02*
X132142857Y-43407200D01*
X132142857Y-43407200D02*
X132095238Y-43311961D01*
X132095238Y-43311961D02*
X132095238Y-42931009D01*
X132095238Y-42931009D02*
X132142857Y-42835771D01*
X132142857Y-42835771D02*
X132238095Y-42788152D01*
X132238095Y-42788152D02*
X132428571Y-42788152D01*
X132428571Y-42788152D02*
X132523809Y-42835771D01*
X132523809Y-42835771D02*
X132571428Y-42931009D01*
X132571428Y-42931009D02*
X132571428Y-43026247D01*
X132571428Y-43026247D02*
X132095238Y-43121485D01*
X133428571Y-43454819D02*
X133428571Y-42931009D01*
X133428571Y-42931009D02*
X133380952Y-42835771D01*
X133380952Y-42835771D02*
X133285714Y-42788152D01*
X133285714Y-42788152D02*
X133095238Y-42788152D01*
X133095238Y-42788152D02*
X133000000Y-42835771D01*
X133428571Y-43407200D02*
X133333333Y-43454819D01*
X133333333Y-43454819D02*
X133095238Y-43454819D01*
X133095238Y-43454819D02*
X133000000Y-43407200D01*
X133000000Y-43407200D02*
X132952381Y-43311961D01*
X132952381Y-43311961D02*
X132952381Y-43216723D01*
X132952381Y-43216723D02*
X133000000Y-43121485D01*
X133000000Y-43121485D02*
X133095238Y-43073866D01*
X133095238Y-43073866D02*
X133333333Y-43073866D01*
X133333333Y-43073866D02*
X133428571Y-43026247D01*
X133904762Y-43454819D02*
X133904762Y-42454819D01*
X134000000Y-43073866D02*
X134285714Y-43454819D01*
X134285714Y-42788152D02*
X133904762Y-43169104D01*
X135095238Y-43407200D02*
X135000000Y-43454819D01*
X135000000Y-43454819D02*
X134809524Y-43454819D01*
X134809524Y-43454819D02*
X134714286Y-43407200D01*
X134714286Y-43407200D02*
X134666667Y-43311961D01*
X134666667Y-43311961D02*
X134666667Y-42931009D01*
X134666667Y-42931009D02*
X134714286Y-42835771D01*
X134714286Y-42835771D02*
X134809524Y-42788152D01*
X134809524Y-42788152D02*
X135000000Y-42788152D01*
X135000000Y-42788152D02*
X135095238Y-42835771D01*
X135095238Y-42835771D02*
X135142857Y-42931009D01*
X135142857Y-42931009D02*
X135142857Y-43026247D01*
X135142857Y-43026247D02*
X134666667Y-43121485D01*
X135571429Y-43454819D02*
X135571429Y-42788152D01*
X135571429Y-42978628D02*
X135619048Y-42883390D01*
X135619048Y-42883390D02*
X135666667Y-42835771D01*
X135666667Y-42835771D02*
X135761905Y-42788152D01*
X135761905Y-42788152D02*
X135857143Y-42788152D01*
X114246667Y-68497200D02*
X114389524Y-68544819D01*
X114389524Y-68544819D02*
X114627619Y-68544819D01*
X114627619Y-68544819D02*
X114722857Y-68497200D01*
X114722857Y-68497200D02*
X114770476Y-68449580D01*
X114770476Y-68449580D02*
X114818095Y-68354342D01*
X114818095Y-68354342D02*
X114818095Y-68259104D01*
X114818095Y-68259104D02*
X114770476Y-68163866D01*
X114770476Y-68163866D02*
X114722857Y-68116247D01*
X114722857Y-68116247D02*
X114627619Y-68068628D01*
X114627619Y-68068628D02*
X114437143Y-68021009D01*
X114437143Y-68021009D02*
X114341905Y-67973390D01*
X114341905Y-67973390D02*
X114294286Y-67925771D01*
X114294286Y-67925771D02*
X114246667Y-67830533D01*
X114246667Y-67830533D02*
X114246667Y-67735295D01*
X114246667Y-67735295D02*
X114294286Y-67640057D01*
X114294286Y-67640057D02*
X114341905Y-67592438D01*
X114341905Y-67592438D02*
X114437143Y-67544819D01*
X114437143Y-67544819D02*
X114675238Y-67544819D01*
X114675238Y-67544819D02*
X114818095Y-67592438D01*
X115151429Y-67544819D02*
X115389524Y-68544819D01*
X115389524Y-68544819D02*
X115580000Y-67830533D01*
X115580000Y-67830533D02*
X115770476Y-68544819D01*
X115770476Y-68544819D02*
X116008572Y-67544819D01*
X116913333Y-68544819D02*
X116341905Y-68544819D01*
X116627619Y-68544819D02*
X116627619Y-67544819D01*
X116627619Y-67544819D02*
X116532381Y-67687676D01*
X116532381Y-67687676D02*
X116437143Y-67782914D01*
X116437143Y-67782914D02*
X116341905Y-67830533D01*
X150522857Y-68529104D02*
X150999047Y-68529104D01*
X150427619Y-68814819D02*
X150760952Y-67814819D01*
X150760952Y-67814819D02*
X151094285Y-68814819D01*
X151427619Y-68814819D02*
X151427619Y-68148152D01*
X151427619Y-68338628D02*
X151475238Y-68243390D01*
X151475238Y-68243390D02*
X151522857Y-68195771D01*
X151522857Y-68195771D02*
X151618095Y-68148152D01*
X151618095Y-68148152D02*
X151713333Y-68148152D01*
X152475238Y-68814819D02*
X152475238Y-67814819D01*
X152475238Y-68767200D02*
X152380000Y-68814819D01*
X152380000Y-68814819D02*
X152189524Y-68814819D01*
X152189524Y-68814819D02*
X152094286Y-68767200D01*
X152094286Y-68767200D02*
X152046667Y-68719580D01*
X152046667Y-68719580D02*
X151999048Y-68624342D01*
X151999048Y-68624342D02*
X151999048Y-68338628D01*
X151999048Y-68338628D02*
X152046667Y-68243390D01*
X152046667Y-68243390D02*
X152094286Y-68195771D01*
X152094286Y-68195771D02*
X152189524Y-68148152D01*
X152189524Y-68148152D02*
X152380000Y-68148152D01*
X152380000Y-68148152D02*
X152475238Y-68195771D01*
X153380000Y-68148152D02*
X153380000Y-68814819D01*
X152951429Y-68148152D02*
X152951429Y-68671961D01*
X152951429Y-68671961D02*
X152999048Y-68767200D01*
X152999048Y-68767200D02*
X153094286Y-68814819D01*
X153094286Y-68814819D02*
X153237143Y-68814819D01*
X153237143Y-68814819D02*
X153332381Y-68767200D01*
X153332381Y-68767200D02*
X153380000Y-68719580D01*
X153856191Y-68814819D02*
X153856191Y-68148152D01*
X153856191Y-67814819D02*
X153808572Y-67862438D01*
X153808572Y-67862438D02*
X153856191Y-67910057D01*
X153856191Y-67910057D02*
X153903810Y-67862438D01*
X153903810Y-67862438D02*
X153856191Y-67814819D01*
X153856191Y-67814819D02*
X153856191Y-67910057D01*
X154332381Y-68148152D02*
X154332381Y-68814819D01*
X154332381Y-68243390D02*
X154380000Y-68195771D01*
X154380000Y-68195771D02*
X154475238Y-68148152D01*
X154475238Y-68148152D02*
X154618095Y-68148152D01*
X154618095Y-68148152D02*
X154713333Y-68195771D01*
X154713333Y-68195771D02*
X154760952Y-68291009D01*
X154760952Y-68291009D02*
X154760952Y-68814819D01*
X155380000Y-68814819D02*
X155284762Y-68767200D01*
X155284762Y-68767200D02*
X155237143Y-68719580D01*
X155237143Y-68719580D02*
X155189524Y-68624342D01*
X155189524Y-68624342D02*
X155189524Y-68338628D01*
X155189524Y-68338628D02*
X155237143Y-68243390D01*
X155237143Y-68243390D02*
X155284762Y-68195771D01*
X155284762Y-68195771D02*
X155380000Y-68148152D01*
X155380000Y-68148152D02*
X155522857Y-68148152D01*
X155522857Y-68148152D02*
X155618095Y-68195771D01*
X155618095Y-68195771D02*
X155665714Y-68243390D01*
X155665714Y-68243390D02*
X155713333Y-68338628D01*
X155713333Y-68338628D02*
X155713333Y-68624342D01*
X155713333Y-68624342D02*
X155665714Y-68719580D01*
X155665714Y-68719580D02*
X155618095Y-68767200D01*
X155618095Y-68767200D02*
X155522857Y-68814819D01*
X155522857Y-68814819D02*
X155380000Y-68814819D01*
X156903810Y-68814819D02*
X156903810Y-67814819D01*
X156903810Y-67814819D02*
X157475238Y-68814819D01*
X157475238Y-68814819D02*
X157475238Y-67814819D01*
X158380000Y-68814819D02*
X158380000Y-68291009D01*
X158380000Y-68291009D02*
X158332381Y-68195771D01*
X158332381Y-68195771D02*
X158237143Y-68148152D01*
X158237143Y-68148152D02*
X158046667Y-68148152D01*
X158046667Y-68148152D02*
X157951429Y-68195771D01*
X158380000Y-68767200D02*
X158284762Y-68814819D01*
X158284762Y-68814819D02*
X158046667Y-68814819D01*
X158046667Y-68814819D02*
X157951429Y-68767200D01*
X157951429Y-68767200D02*
X157903810Y-68671961D01*
X157903810Y-68671961D02*
X157903810Y-68576723D01*
X157903810Y-68576723D02*
X157951429Y-68481485D01*
X157951429Y-68481485D02*
X158046667Y-68433866D01*
X158046667Y-68433866D02*
X158284762Y-68433866D01*
X158284762Y-68433866D02*
X158380000Y-68386247D01*
X158856191Y-68148152D02*
X158856191Y-68814819D01*
X158856191Y-68243390D02*
X158903810Y-68195771D01*
X158903810Y-68195771D02*
X158999048Y-68148152D01*
X158999048Y-68148152D02*
X159141905Y-68148152D01*
X159141905Y-68148152D02*
X159237143Y-68195771D01*
X159237143Y-68195771D02*
X159284762Y-68291009D01*
X159284762Y-68291009D02*
X159284762Y-68814819D01*
X159903810Y-68814819D02*
X159808572Y-68767200D01*
X159808572Y-68767200D02*
X159760953Y-68719580D01*
X159760953Y-68719580D02*
X159713334Y-68624342D01*
X159713334Y-68624342D02*
X159713334Y-68338628D01*
X159713334Y-68338628D02*
X159760953Y-68243390D01*
X159760953Y-68243390D02*
X159808572Y-68195771D01*
X159808572Y-68195771D02*
X159903810Y-68148152D01*
X159903810Y-68148152D02*
X160046667Y-68148152D01*
X160046667Y-68148152D02*
X160141905Y-68195771D01*
X160141905Y-68195771D02*
X160189524Y-68243390D01*
X160189524Y-68243390D02*
X160237143Y-68338628D01*
X160237143Y-68338628D02*
X160237143Y-68624342D01*
X160237143Y-68624342D02*
X160189524Y-68719580D01*
X160189524Y-68719580D02*
X160141905Y-68767200D01*
X160141905Y-68767200D02*
X160046667Y-68814819D01*
X160046667Y-68814819D02*
X159903810Y-68814819D01*
X154118095Y-108454819D02*
X154118095Y-109264342D01*
X154118095Y-109264342D02*
X154165714Y-109359580D01*
X154165714Y-109359580D02*
X154213333Y-109407200D01*
X154213333Y-109407200D02*
X154308571Y-109454819D01*
X154308571Y-109454819D02*
X154499047Y-109454819D01*
X154499047Y-109454819D02*
X154594285Y-109407200D01*
X154594285Y-109407200D02*
X154641904Y-109359580D01*
X154641904Y-109359580D02*
X154689523Y-109264342D01*
X154689523Y-109264342D02*
X154689523Y-108454819D01*
X155118095Y-109407200D02*
X155260952Y-109454819D01*
X155260952Y-109454819D02*
X155499047Y-109454819D01*
X155499047Y-109454819D02*
X155594285Y-109407200D01*
X155594285Y-109407200D02*
X155641904Y-109359580D01*
X155641904Y-109359580D02*
X155689523Y-109264342D01*
X155689523Y-109264342D02*
X155689523Y-109169104D01*
X155689523Y-109169104D02*
X155641904Y-109073866D01*
X155641904Y-109073866D02*
X155594285Y-109026247D01*
X155594285Y-109026247D02*
X155499047Y-108978628D01*
X155499047Y-108978628D02*
X155308571Y-108931009D01*
X155308571Y-108931009D02*
X155213333Y-108883390D01*
X155213333Y-108883390D02*
X155165714Y-108835771D01*
X155165714Y-108835771D02*
X155118095Y-108740533D01*
X155118095Y-108740533D02*
X155118095Y-108645295D01*
X155118095Y-108645295D02*
X155165714Y-108550057D01*
X155165714Y-108550057D02*
X155213333Y-108502438D01*
X155213333Y-108502438D02*
X155308571Y-108454819D01*
X155308571Y-108454819D02*
X155546666Y-108454819D01*
X155546666Y-108454819D02*
X155689523Y-108502438D01*
X156451428Y-108931009D02*
X156594285Y-108978628D01*
X156594285Y-108978628D02*
X156641904Y-109026247D01*
X156641904Y-109026247D02*
X156689523Y-109121485D01*
X156689523Y-109121485D02*
X156689523Y-109264342D01*
X156689523Y-109264342D02*
X156641904Y-109359580D01*
X156641904Y-109359580D02*
X156594285Y-109407200D01*
X156594285Y-109407200D02*
X156499047Y-109454819D01*
X156499047Y-109454819D02*
X156118095Y-109454819D01*
X156118095Y-109454819D02*
X156118095Y-108454819D01*
X156118095Y-108454819D02*
X156451428Y-108454819D01*
X156451428Y-108454819D02*
X156546666Y-108502438D01*
X156546666Y-108502438D02*
X156594285Y-108550057D01*
X156594285Y-108550057D02*
X156641904Y-108645295D01*
X156641904Y-108645295D02*
X156641904Y-108740533D01*
X156641904Y-108740533D02*
X156594285Y-108835771D01*
X156594285Y-108835771D02*
X156546666Y-108883390D01*
X156546666Y-108883390D02*
X156451428Y-108931009D01*
X156451428Y-108931009D02*
X156118095Y-108931009D01*
X148095238Y-42454819D02*
X148095238Y-41454819D01*
X148095238Y-41454819D02*
X148333333Y-41454819D01*
X148333333Y-41454819D02*
X148476190Y-41502438D01*
X148476190Y-41502438D02*
X148571428Y-41597676D01*
X148571428Y-41597676D02*
X148619047Y-41692914D01*
X148619047Y-41692914D02*
X148666666Y-41883390D01*
X148666666Y-41883390D02*
X148666666Y-42026247D01*
X148666666Y-42026247D02*
X148619047Y-42216723D01*
X148619047Y-42216723D02*
X148571428Y-42311961D01*
X148571428Y-42311961D02*
X148476190Y-42407200D01*
X148476190Y-42407200D02*
X148333333Y-42454819D01*
X148333333Y-42454819D02*
X148095238Y-42454819D01*
X149428571Y-41931009D02*
X149095238Y-41931009D01*
X149095238Y-42454819D02*
X149095238Y-41454819D01*
X149095238Y-41454819D02*
X149571428Y-41454819D01*
X149952381Y-42454819D02*
X149952381Y-41454819D01*
X149952381Y-41454819D02*
X150333333Y-41454819D01*
X150333333Y-41454819D02*
X150428571Y-41502438D01*
X150428571Y-41502438D02*
X150476190Y-41550057D01*
X150476190Y-41550057D02*
X150523809Y-41645295D01*
X150523809Y-41645295D02*
X150523809Y-41788152D01*
X150523809Y-41788152D02*
X150476190Y-41883390D01*
X150476190Y-41883390D02*
X150428571Y-41931009D01*
X150428571Y-41931009D02*
X150333333Y-41978628D01*
X150333333Y-41978628D02*
X149952381Y-41978628D01*
X151095238Y-42454819D02*
X151000000Y-42407200D01*
X151000000Y-42407200D02*
X150952381Y-42311961D01*
X150952381Y-42311961D02*
X150952381Y-41454819D01*
X151904762Y-42454819D02*
X151904762Y-41931009D01*
X151904762Y-41931009D02*
X151857143Y-41835771D01*
X151857143Y-41835771D02*
X151761905Y-41788152D01*
X151761905Y-41788152D02*
X151571429Y-41788152D01*
X151571429Y-41788152D02*
X151476191Y-41835771D01*
X151904762Y-42407200D02*
X151809524Y-42454819D01*
X151809524Y-42454819D02*
X151571429Y-42454819D01*
X151571429Y-42454819D02*
X151476191Y-42407200D01*
X151476191Y-42407200D02*
X151428572Y-42311961D01*
X151428572Y-42311961D02*
X151428572Y-42216723D01*
X151428572Y-42216723D02*
X151476191Y-42121485D01*
X151476191Y-42121485D02*
X151571429Y-42073866D01*
X151571429Y-42073866D02*
X151809524Y-42073866D01*
X151809524Y-42073866D02*
X151904762Y-42026247D01*
X152285715Y-41788152D02*
X152523810Y-42454819D01*
X152761905Y-41788152D02*
X152523810Y-42454819D01*
X152523810Y-42454819D02*
X152428572Y-42692914D01*
X152428572Y-42692914D02*
X152380953Y-42740533D01*
X152380953Y-42740533D02*
X152285715Y-42788152D01*
X153523810Y-42407200D02*
X153428572Y-42454819D01*
X153428572Y-42454819D02*
X153238096Y-42454819D01*
X153238096Y-42454819D02*
X153142858Y-42407200D01*
X153142858Y-42407200D02*
X153095239Y-42311961D01*
X153095239Y-42311961D02*
X153095239Y-41931009D01*
X153095239Y-41931009D02*
X153142858Y-41835771D01*
X153142858Y-41835771D02*
X153238096Y-41788152D01*
X153238096Y-41788152D02*
X153428572Y-41788152D01*
X153428572Y-41788152D02*
X153523810Y-41835771D01*
X153523810Y-41835771D02*
X153571429Y-41931009D01*
X153571429Y-41931009D02*
X153571429Y-42026247D01*
X153571429Y-42026247D02*
X153095239Y-42121485D01*
X154000001Y-42454819D02*
X154000001Y-41788152D01*
X154000001Y-41978628D02*
X154047620Y-41883390D01*
X154047620Y-41883390D02*
X154095239Y-41835771D01*
X154095239Y-41835771D02*
X154190477Y-41788152D01*
X154190477Y-41788152D02*
X154285715Y-41788152D01*
X155380954Y-42454819D02*
X155380954Y-41454819D01*
X155380954Y-41454819D02*
X155714287Y-42169104D01*
X155714287Y-42169104D02*
X156047620Y-41454819D01*
X156047620Y-41454819D02*
X156047620Y-42454819D01*
X156523811Y-42454819D02*
X156523811Y-41788152D01*
X156523811Y-41454819D02*
X156476192Y-41502438D01*
X156476192Y-41502438D02*
X156523811Y-41550057D01*
X156523811Y-41550057D02*
X156571430Y-41502438D01*
X156571430Y-41502438D02*
X156523811Y-41454819D01*
X156523811Y-41454819D02*
X156523811Y-41550057D01*
X157000001Y-41788152D02*
X157000001Y-42454819D01*
X157000001Y-41883390D02*
X157047620Y-41835771D01*
X157047620Y-41835771D02*
X157142858Y-41788152D01*
X157142858Y-41788152D02*
X157285715Y-41788152D01*
X157285715Y-41788152D02*
X157380953Y-41835771D01*
X157380953Y-41835771D02*
X157428572Y-41931009D01*
X157428572Y-41931009D02*
X157428572Y-42454819D01*
X157904763Y-42454819D02*
X157904763Y-41788152D01*
X157904763Y-41454819D02*
X157857144Y-41502438D01*
X157857144Y-41502438D02*
X157904763Y-41550057D01*
X157904763Y-41550057D02*
X157952382Y-41502438D01*
X157952382Y-41502438D02*
X157904763Y-41454819D01*
X157904763Y-41454819D02*
X157904763Y-41550057D01*
X126084819Y-107286190D02*
X125608628Y-107619523D01*
X126084819Y-107857618D02*
X125084819Y-107857618D01*
X125084819Y-107857618D02*
X125084819Y-107476666D01*
X125084819Y-107476666D02*
X125132438Y-107381428D01*
X125132438Y-107381428D02*
X125180057Y-107333809D01*
X125180057Y-107333809D02*
X125275295Y-107286190D01*
X125275295Y-107286190D02*
X125418152Y-107286190D01*
X125418152Y-107286190D02*
X125513390Y-107333809D01*
X125513390Y-107333809D02*
X125561009Y-107381428D01*
X125561009Y-107381428D02*
X125608628Y-107476666D01*
X125608628Y-107476666D02*
X125608628Y-107857618D01*
X125084819Y-106952856D02*
X125084819Y-106333809D01*
X125084819Y-106333809D02*
X125465771Y-106667142D01*
X125465771Y-106667142D02*
X125465771Y-106524285D01*
X125465771Y-106524285D02*
X125513390Y-106429047D01*
X125513390Y-106429047D02*
X125561009Y-106381428D01*
X125561009Y-106381428D02*
X125656247Y-106333809D01*
X125656247Y-106333809D02*
X125894342Y-106333809D01*
X125894342Y-106333809D02*
X125989580Y-106381428D01*
X125989580Y-106381428D02*
X126037200Y-106429047D01*
X126037200Y-106429047D02*
X126084819Y-106524285D01*
X126084819Y-106524285D02*
X126084819Y-106809999D01*
X126084819Y-106809999D02*
X126037200Y-106905237D01*
X126037200Y-106905237D02*
X125989580Y-106952856D01*
X125703866Y-105143332D02*
X125703866Y-104381428D01*
X126084819Y-102619523D02*
X126084819Y-103190951D01*
X126084819Y-102905237D02*
X125084819Y-102905237D01*
X125084819Y-102905237D02*
X125227676Y-103000475D01*
X125227676Y-103000475D02*
X125322914Y-103095713D01*
X125322914Y-103095713D02*
X125370533Y-103190951D01*
X125084819Y-102000475D02*
X125084819Y-101905237D01*
X125084819Y-101905237D02*
X125132438Y-101809999D01*
X125132438Y-101809999D02*
X125180057Y-101762380D01*
X125180057Y-101762380D02*
X125275295Y-101714761D01*
X125275295Y-101714761D02*
X125465771Y-101667142D01*
X125465771Y-101667142D02*
X125703866Y-101667142D01*
X125703866Y-101667142D02*
X125894342Y-101714761D01*
X125894342Y-101714761D02*
X125989580Y-101762380D01*
X125989580Y-101762380D02*
X126037200Y-101809999D01*
X126037200Y-101809999D02*
X126084819Y-101905237D01*
X126084819Y-101905237D02*
X126084819Y-102000475D01*
X126084819Y-102000475D02*
X126037200Y-102095713D01*
X126037200Y-102095713D02*
X125989580Y-102143332D01*
X125989580Y-102143332D02*
X125894342Y-102190951D01*
X125894342Y-102190951D02*
X125703866Y-102238570D01*
X125703866Y-102238570D02*
X125465771Y-102238570D01*
X125465771Y-102238570D02*
X125275295Y-102190951D01*
X125275295Y-102190951D02*
X125180057Y-102143332D01*
X125180057Y-102143332D02*
X125132438Y-102095713D01*
X125132438Y-102095713D02*
X125084819Y-102000475D01*
X126084819Y-101238570D02*
X125084819Y-101238570D01*
X125703866Y-101143332D02*
X126084819Y-100857618D01*
X125418152Y-100857618D02*
X125799104Y-101238570D01*
X126084819Y-100476665D02*
X126084819Y-100238570D01*
X126084819Y-100238570D02*
X125894342Y-100238570D01*
X125894342Y-100238570D02*
X125846723Y-100333808D01*
X125846723Y-100333808D02*
X125751485Y-100429046D01*
X125751485Y-100429046D02*
X125608628Y-100476665D01*
X125608628Y-100476665D02*
X125370533Y-100476665D01*
X125370533Y-100476665D02*
X125227676Y-100429046D01*
X125227676Y-100429046D02*
X125132438Y-100333808D01*
X125132438Y-100333808D02*
X125084819Y-100190951D01*
X125084819Y-100190951D02*
X125084819Y-100000475D01*
X125084819Y-100000475D02*
X125132438Y-99857618D01*
X125132438Y-99857618D02*
X125227676Y-99762380D01*
X125227676Y-99762380D02*
X125370533Y-99714761D01*
X125370533Y-99714761D02*
X125608628Y-99714761D01*
X125608628Y-99714761D02*
X125751485Y-99762380D01*
X125751485Y-99762380D02*
X125846723Y-99857618D01*
X125846723Y-99857618D02*
X125894342Y-99952856D01*
X125894342Y-99952856D02*
X126084819Y-99952856D01*
X126084819Y-99952856D02*
X126084819Y-99714761D01*
X138824819Y-63000000D02*
X138348628Y-63333333D01*
X138824819Y-63571428D02*
X137824819Y-63571428D01*
X137824819Y-63571428D02*
X137824819Y-63190476D01*
X137824819Y-63190476D02*
X137872438Y-63095238D01*
X137872438Y-63095238D02*
X137920057Y-63047619D01*
X137920057Y-63047619D02*
X138015295Y-63000000D01*
X138015295Y-63000000D02*
X138158152Y-63000000D01*
X138158152Y-63000000D02*
X138253390Y-63047619D01*
X138253390Y-63047619D02*
X138301009Y-63095238D01*
X138301009Y-63095238D02*
X138348628Y-63190476D01*
X138348628Y-63190476D02*
X138348628Y-63571428D01*
X138824819Y-62047619D02*
X138824819Y-62619047D01*
X138824819Y-62333333D02*
X137824819Y-62333333D01*
X137824819Y-62333333D02*
X137967676Y-62428571D01*
X137967676Y-62428571D02*
X138062914Y-62523809D01*
X138062914Y-62523809D02*
X138110533Y-62619047D01*
X138443866Y-60857142D02*
X138443866Y-60095238D01*
X138824819Y-58333333D02*
X138824819Y-58904761D01*
X138824819Y-58619047D02*
X137824819Y-58619047D01*
X137824819Y-58619047D02*
X137967676Y-58714285D01*
X137967676Y-58714285D02*
X138062914Y-58809523D01*
X138062914Y-58809523D02*
X138110533Y-58904761D01*
X138824819Y-57904761D02*
X137824819Y-57904761D01*
X138443866Y-57809523D02*
X138824819Y-57523809D01*
X138158152Y-57523809D02*
X138539104Y-57904761D01*
X138824819Y-57142856D02*
X138824819Y-56904761D01*
X138824819Y-56904761D02*
X138634342Y-56904761D01*
X138634342Y-56904761D02*
X138586723Y-56999999D01*
X138586723Y-56999999D02*
X138491485Y-57095237D01*
X138491485Y-57095237D02*
X138348628Y-57142856D01*
X138348628Y-57142856D02*
X138110533Y-57142856D01*
X138110533Y-57142856D02*
X137967676Y-57095237D01*
X137967676Y-57095237D02*
X137872438Y-56999999D01*
X137872438Y-56999999D02*
X137824819Y-56857142D01*
X137824819Y-56857142D02*
X137824819Y-56666666D01*
X137824819Y-56666666D02*
X137872438Y-56523809D01*
X137872438Y-56523809D02*
X137967676Y-56428571D01*
X137967676Y-56428571D02*
X138110533Y-56380952D01*
X138110533Y-56380952D02*
X138348628Y-56380952D01*
X138348628Y-56380952D02*
X138491485Y-56428571D01*
X138491485Y-56428571D02*
X138586723Y-56523809D01*
X138586723Y-56523809D02*
X138634342Y-56619047D01*
X138634342Y-56619047D02*
X138824819Y-56619047D01*
X138824819Y-56619047D02*
X138824819Y-56380952D01*
%TO.C,R2 - 10k\u03A9*%
D12*
X125630000Y-73730000D02*
X125960000Y-73730000D01*
X125630000Y-80270000D02*
X125630000Y-73730000D01*
X125960000Y-80270000D02*
X125630000Y-80270000D01*
X128040000Y-80270000D02*
X128370000Y-80270000D01*
X128370000Y-73730000D02*
X128040000Y-73730000D01*
X128370000Y-80270000D02*
X128370000Y-73730000D01*
%TO.C,SW2*%
X110140000Y-88390000D02*
X110140000Y-90900000D01*
X110140000Y-88390000D02*
X122360000Y-88390000D01*
X110140000Y-93200000D02*
X110140000Y-95800000D01*
X110140000Y-98100000D02*
X110140000Y-100610000D01*
X122360000Y-88390000D02*
X122360000Y-90900000D01*
X122360000Y-93200000D02*
X122360000Y-95800000D01*
X122360000Y-98100000D02*
X122360000Y-100610000D01*
X122360000Y-100610000D02*
X110140000Y-100610000D01*
X119800000Y-94500000D02*
G75*
G02*
X112700000Y-94500000I-3550000J0D01*
G01*
X112700000Y-94500000D02*
G75*
G02*
X119800000Y-94500000I3550000J0D01*
G01*
%TO.C,SW3*%
X130140000Y-79390000D02*
X130140000Y-81900000D01*
X130140000Y-79390000D02*
X142360000Y-79390000D01*
X130140000Y-84200000D02*
X130140000Y-86800000D01*
X130140000Y-89100000D02*
X130140000Y-91610000D01*
X142360000Y-79390000D02*
X142360000Y-81900000D01*
X142360000Y-84200000D02*
X142360000Y-86800000D01*
X142360000Y-89100000D02*
X142360000Y-91610000D01*
X142360000Y-91610000D02*
X130140000Y-91610000D01*
X139800000Y-85500000D02*
G75*
G02*
X132700000Y-85500000I-3550000J0D01*
G01*
X132700000Y-85500000D02*
G75*
G02*
X139800000Y-85500000I3550000J0D01*
G01*
%TO.C,R4 - 10k\u03A9*%
X134630000Y-100540000D02*
X134630000Y-107080000D01*
X134630000Y-107080000D02*
X134960000Y-107080000D01*
X134960000Y-100540000D02*
X134630000Y-100540000D01*
X137040000Y-100540000D02*
X137370000Y-100540000D01*
X137370000Y-100540000D02*
X137370000Y-107080000D01*
X137370000Y-107080000D02*
X137040000Y-107080000D01*
%TO.C,Oled*%
X111590000Y-40670000D02*
X111590000Y-43330000D01*
X119270000Y-40670000D02*
X111590000Y-40670000D01*
X119270000Y-40670000D02*
X119270000Y-43330000D01*
X119270000Y-43330000D02*
X111590000Y-43330000D01*
X121870000Y-42000000D02*
X121870000Y-43330000D01*
X121870000Y-43330000D02*
X120540000Y-43330000D01*
%TO.C,Speaker*%
X129640000Y-43890000D02*
X129640000Y-45140000D01*
X129940000Y-45500000D02*
X130550000Y-45500000D01*
X129940000Y-46800000D02*
X130550000Y-46800000D01*
X130550000Y-44800000D02*
X130550000Y-48300000D01*
X130550000Y-48300000D02*
X135450000Y-48300000D01*
X130890000Y-43890000D02*
X129640000Y-43890000D01*
X131400000Y-43990000D02*
X131400000Y-44190000D01*
X131700000Y-43990000D02*
X131400000Y-43990000D01*
X131700000Y-44090000D02*
X131400000Y-44090000D01*
X131700000Y-44190000D02*
X131700000Y-43990000D01*
X132500000Y-44190000D02*
X132500000Y-44800000D01*
X132500000Y-44800000D02*
X130550000Y-44800000D01*
X132900000Y-47800000D02*
X133100000Y-47800000D01*
X132900000Y-48300000D02*
X132900000Y-47800000D01*
X133000000Y-48300000D02*
X133000000Y-47800000D01*
X133100000Y-47800000D02*
X133100000Y-48300000D01*
X133500000Y-44800000D02*
X133500000Y-44190000D01*
X135450000Y-44800000D02*
X133500000Y-44800000D01*
X135450000Y-48300000D02*
X135450000Y-44800000D01*
X136060000Y-45500000D02*
X135450000Y-45500000D01*
X136060000Y-46800000D02*
X135450000Y-46800000D01*
X129940000Y-44190000D02*
X136060000Y-44190000D01*
X136060000Y-48910000D01*
X129940000Y-48910000D01*
X129940000Y-44190000D01*
%TO.C,SW1*%
X109890000Y-69890000D02*
X109890000Y-72400000D01*
X109890000Y-69890000D02*
X122110000Y-69890000D01*
X109890000Y-74700000D02*
X109890000Y-77300000D01*
X109890000Y-79600000D02*
X109890000Y-82110000D01*
X122110000Y-69890000D02*
X122110000Y-72400000D01*
X122110000Y-74700000D02*
X122110000Y-77300000D01*
X122110000Y-79600000D02*
X122110000Y-82110000D01*
X122110000Y-82110000D02*
X109890000Y-82110000D01*
X119550000Y-76000000D02*
G75*
G02*
X112450000Y-76000000I-3550000J0D01*
G01*
X112450000Y-76000000D02*
G75*
G02*
X119550000Y-76000000I3550000J0D01*
G01*
%TO.C,Arduino Nano*%
X146360000Y-69500000D02*
X146360000Y-72170000D01*
X146360000Y-74710000D02*
X146360000Y-112940000D01*
X146360000Y-112940000D02*
X151440000Y-112940000D01*
X149030000Y-72170000D02*
X146360000Y-72170000D01*
X149030000Y-74710000D02*
X146360000Y-74710000D01*
X149030000Y-74710000D02*
X149030000Y-72170000D01*
X149030000Y-74710000D02*
X149030000Y-110270000D01*
X149030000Y-110270000D02*
X146360000Y-110270000D01*
X151440000Y-105060000D02*
X159320000Y-105060000D01*
X151440000Y-115480000D02*
X151440000Y-105060000D01*
X159320000Y-105060000D02*
X159320000Y-115480000D01*
X159320000Y-115480000D02*
X151440000Y-115480000D01*
X161730000Y-72170000D02*
X161730000Y-110270000D01*
X161730000Y-72170000D02*
X164400000Y-72170000D01*
X161730000Y-110270000D02*
X164400000Y-110270000D01*
X164400000Y-69500000D02*
X146360000Y-69500000D01*
X164400000Y-112940000D02*
X159320000Y-112940000D01*
X164400000Y-112940000D02*
X164400000Y-69500000D01*
%TO.C,R3 - 10k\u03A9*%
X126630000Y-100540000D02*
X126960000Y-100540000D01*
X126630000Y-107080000D02*
X126630000Y-100540000D01*
X126960000Y-107080000D02*
X126630000Y-107080000D01*
X129040000Y-107080000D02*
X129370000Y-107080000D01*
X129370000Y-100540000D02*
X129040000Y-100540000D01*
X129370000Y-107080000D02*
X129370000Y-100540000D01*
%TO.C,R1 - 1k\u2126*%
X134630000Y-56730000D02*
X134630000Y-63270000D01*
X134630000Y-63270000D02*
X134960000Y-63270000D01*
X134960000Y-56730000D02*
X134630000Y-56730000D01*
X137040000Y-56730000D02*
X137370000Y-56730000D01*
X137370000Y-56730000D02*
X137370000Y-63270000D01*
X137370000Y-63270000D02*
X137040000Y-63270000D01*
%TD*%
M02*
