%TF.GenerationSoftware,KiCad,Pcbnew,10.0.3*%
%TF.CreationDate,2026-07-06T13:29:28-04:00*%
%TF.ProjectId,Music Player,4d757369-6320-4506-9c61-7965722e6b69,rev?*%
%TF.SameCoordinates,Original*%
%TF.FileFunction,Soldermask,Top*%
%TF.FilePolarity,Negative*%
%FSLAX46Y46*%
G04 Gerber Fmt 4.6, Leading zero omitted, Abs format (unit mm)*
G04 Created by KiCad (PCBNEW 10.0.3) date 2026-07-06 13:29:28*
%MOMM*%
%LPD*%
G01*
G04 APERTURE LIST*
G04 Aperture macros list*
%AMRoundRect*
0 Rectangle with rounded corners*
0 $1 Rounding radius*
0 $2 $3 $4 $5 $6 $7 $8 $9 X,Y pos of 4 corners*
0 Add a 4 corners polygon primitive as box body*
4,1,4,$2,$3,$4,$5,$6,$7,$8,$9,$2,$3,0*
0 Add four circle primitives for the rounded corners*
1,1,$1+$1,$2,$3*
1,1,$1+$1,$4,$5*
1,1,$1+$1,$6,$7*
1,1,$1+$1,$8,$9*
0 Add four rect primitives between the rounded corners*
20,1,$1+$1,$2,$3,$4,$5,0*
20,1,$1+$1,$4,$5,$6,$7,0*
20,1,$1+$1,$6,$7,$8,$9,0*
20,1,$1+$1,$8,$9,$2,$3,0*%
G04 Aperture macros list end*
%ADD10C,1.524000*%
%ADD11C,1.600000*%
%ADD12R,1.700000X1.700000*%
%ADD13C,1.700000*%
%ADD14RoundRect,0.250000X-0.350000X-0.625000X0.350000X-0.625000X0.350000X0.625000X-0.350000X0.625000X0*%
%ADD15O,1.200000X1.750000*%
%ADD16R,1.600000X1.600000*%
%ADD17O,1.600000X1.600000*%
%ADD18O,3.200000X1.900000*%
G04 APERTURE END LIST*
D10*
%TO.C,DFPlayer Mini*%
X162160000Y-45000000D03*
X162160000Y-47540000D03*
X162160000Y-50080000D03*
X162160000Y-52620000D03*
X162160000Y-55160000D03*
X162160000Y-57700000D03*
X162160000Y-60240000D03*
X162160000Y-62780000D03*
X144380000Y-62780000D03*
X144380000Y-60240000D03*
X144380000Y-57700000D03*
X144380000Y-55160000D03*
X144380000Y-52620000D03*
X144380000Y-50080000D03*
X144380000Y-47540000D03*
X144380000Y-45000000D03*
%TD*%
D11*
%TO.C,R2*%
X127000000Y-80810000D03*
X127000000Y-73190000D03*
%TD*%
%TO.C,R4*%
X136000000Y-100000000D03*
X136000000Y-107620000D03*
%TD*%
D12*
%TO.C,Oled*%
X120540000Y-42000000D03*
D13*
X118000000Y-42000000D03*
X115460000Y-42000000D03*
X112920000Y-42000000D03*
%TD*%
D14*
%TO.C,Speaker*%
X132000000Y-46000000D03*
D15*
X134000000Y-46000000D03*
%TD*%
D16*
%TO.C,Arduino Nano*%
X147760000Y-73440000D03*
D17*
X147760000Y-75980000D03*
X147760000Y-78520000D03*
X147760000Y-81060000D03*
X147760000Y-83600000D03*
X147760000Y-86140000D03*
X147760000Y-88680000D03*
X147760000Y-91220000D03*
X147760000Y-93760000D03*
X147760000Y-96300000D03*
X147760000Y-98840000D03*
X147760000Y-101380000D03*
X147760000Y-103920000D03*
X147760000Y-106460000D03*
X147760000Y-109000000D03*
X163000000Y-109000000D03*
X163000000Y-106460000D03*
X163000000Y-103920000D03*
X163000000Y-101380000D03*
X163000000Y-98840000D03*
X163000000Y-96300000D03*
X163000000Y-93760000D03*
X163000000Y-91220000D03*
X163000000Y-88680000D03*
X163000000Y-86140000D03*
X163000000Y-83600000D03*
X163000000Y-81060000D03*
X163000000Y-78520000D03*
X163000000Y-75980000D03*
X163000000Y-73440000D03*
%TD*%
D11*
%TO.C,R3*%
X128000000Y-107620000D03*
X128000000Y-100000000D03*
%TD*%
%TO.C,R1*%
X140000000Y-56190000D03*
X140000000Y-63810000D03*
%TD*%
D18*
%TO.C,SW1*%
X122250000Y-78500000D03*
X109750000Y-78500000D03*
X122250000Y-73500000D03*
X109750000Y-73500000D03*
%TD*%
%TO.C,SW2*%
X110000000Y-92000000D03*
X122500000Y-92000000D03*
X110000000Y-97000000D03*
X122500000Y-97000000D03*
%TD*%
%TO.C,SW3*%
X130000000Y-83000000D03*
X142500000Y-83000000D03*
X130000000Y-88000000D03*
X142500000Y-88000000D03*
%TD*%
M02*
