M48
; DRILL file KiCad 10.0.3 date 2026-07-06T13:29:33
; FORMAT={-:-/ absolute / metric / decimal}
; #@! TF.CreationDate,2026-07-06T13:29:33-04:00
; #@! TF.GenerationSoftware,Kicad,Pcbnew,10.0.3
; #@! TF.FileFunction,Plated,1,2,PTH
FMAT,2
METRIC
; #@! TA.AperFunction,Plated,PTH,ViaDrill
T1C0.300
; #@! TA.AperFunction,Plated,PTH,ComponentDrill
T2C0.750
; #@! TA.AperFunction,Plated,PTH,ComponentDrill
T3C0.762
; #@! TA.AperFunction,Plated,PTH,ComponentDrill
T4C0.800
; #@! TA.AperFunction,Plated,PTH,ComponentDrill
T5C1.000
; #@! TA.AperFunction,Plated,PTH,ComponentDrill
T6C1.300
%
G90
G05
T1
X125.0Y-80.0
X131.785Y-88.215
X139.916Y-54.084
X144.0Y-80.0
X144.0Y-89.0
X144.4Y-90.0
X146.6Y-81.0
X146.6Y-88.0
X150.0Y-92.0
X151.0Y-82.0
T2
X132.0Y-46.0
X134.0Y-46.0
T3
X144.38Y-45.0
X144.38Y-47.54
X144.38Y-50.08
X144.38Y-52.62
X144.38Y-55.16
X144.38Y-57.7
X144.38Y-60.24
X144.38Y-62.78
X162.16Y-45.0
X162.16Y-47.54
X162.16Y-50.08
X162.16Y-52.62
X162.16Y-55.16
X162.16Y-57.7
X162.16Y-60.24
X162.16Y-62.78
T4
X127.0Y-73.19
X127.0Y-80.81
X128.0Y-100.0
X128.0Y-107.62
X136.0Y-100.0
X136.0Y-107.62
X140.0Y-56.19
X140.0Y-63.81
T5
X112.92Y-42.0
X115.46Y-42.0
X118.0Y-42.0
X120.54Y-42.0
X147.76Y-73.44
X147.76Y-75.98
X147.76Y-78.52
X147.76Y-81.06
X147.76Y-83.6
X147.76Y-86.14
X147.76Y-88.68
X147.76Y-91.22
X147.76Y-93.76
X147.76Y-96.3
X147.76Y-98.84
X147.76Y-101.38
X147.76Y-103.92
X147.76Y-106.46
X147.76Y-109.0
X163.0Y-73.44
X163.0Y-75.98
X163.0Y-78.52
X163.0Y-81.06
X163.0Y-83.6
X163.0Y-86.14
X163.0Y-88.68
X163.0Y-91.22
X163.0Y-93.76
X163.0Y-96.3
X163.0Y-98.84
X163.0Y-101.38
X163.0Y-103.92
X163.0Y-106.46
X163.0Y-109.0
T6
X109.75Y-73.5
X109.75Y-78.5
X110.0Y-92.0
X110.0Y-97.0
X122.25Y-73.5
X122.25Y-78.5
X122.5Y-92.0
X122.5Y-97.0
X130.0Y-83.0
X130.0Y-88.0
X142.5Y-83.0
X142.5Y-88.0
M30
